<mxfile host="app.diagrams.net" modified="2023-10-19T15:14:44.587Z" agent="Mozilla/5.0 (Windows NT 10.0; Win64; x64) AppleWebKit/537.36 (KHTML, like Gecko) Chrome/118.0.0.0 Safari/537.36" version="22.0.5" etag="Gk2MzWEpICWNh0uZmCQv" type="github">
  <diagram name="PÃ¡gina-1" id="S1wUdYgR4JiFCitwVnuS">
    <mxGraphModel>
      <root>
        <mxCell id="0" />
        <mxCell id="1" parent="0" />
      </root>
    </mxGraphModel>
  </diagram>
</mxfile>
